<svg xmlns="http://www.w3.org/2000/svg" version="1.1" xmlns:xlink="http://www.w3.org/1999/xlink" width="300" height="300"><svg width="300" height="300" viewBox="0 0 300 300" fill="none" xmlns="http://www.w3.org/2000/svg">
<circle cx="150" cy="150" r="150" fill="url(#paint0_linear_356_1379)"></circle>
<g clip-path="url(#clip0_356_1379)">
<path d="M196.848 85.6526C195.867 84.6705 194.702 83.8914 193.42 83.3599C192.138 82.8283 190.763 82.5547 189.375 82.5547C187.987 82.5547 186.613 82.8283 185.331 83.3599C184.049 83.8914 182.884 84.6705 181.903 85.6526L154.375 113.189L148.723 107.528C147.901 106.706 146.787 106.245 145.625 106.245C144.464 106.245 143.349 106.706 142.528 107.528C141.706 108.349 141.245 109.463 141.245 110.625C141.245 111.787 141.706 112.901 142.528 113.723L152.564 123.75L90.028 186.278C89.622 186.685 89.3002 187.168 89.081 187.699C88.8618 188.231 88.7495 188.8 88.7505 189.375V205.064L81.278 212.528C80.4576 213.349 79.9972 214.463 79.998 215.624C79.9989 216.785 80.4608 217.898 81.2824 218.718C82.1039 219.539 83.2176 219.999 84.3786 219.998C85.5395 219.997 86.6526 219.535 87.473 218.714L94.9367 211.25H110.625C111.2 211.251 111.77 211.139 112.301 210.92C112.833 210.7 113.316 210.379 113.723 209.973L176.25 147.436L186.278 157.473C187.099 158.294 188.214 158.756 189.375 158.756C190.537 158.756 191.651 158.294 192.473 157.473C193.294 156.651 193.756 155.537 193.756 154.375C193.756 153.213 193.294 152.099 192.473 151.278L186.812 145.625L214.348 118.098C215.33 117.117 216.109 115.952 216.641 114.67C217.172 113.387 217.446 112.013 217.446 110.625C217.446 109.237 217.172 107.863 216.641 106.58C216.109 105.298 215.33 104.133 214.348 103.153L196.848 85.6526ZM97.5005 191.186L158.75 129.936L170.064 141.25L108.814 202.5H97.5005V191.186Z" fill="white"></path>
</g>
<defs>
<linearGradient id="SvgjsLinearGradient1011" x1="150" y1="0" x2="150" y2="300" gradientUnits="userSpaceOnUse">
<stop stop-color="#550C6F"></stop>
<stop offset="1" stop-color="#35186F"></stop>
</linearGradient>
<clipPath id="SvgjsClipPath1010">
<rect width="140" height="140" fill="white" transform="translate(80 80)"></rect>
</clipPath>
</defs>
</svg><style>@media (prefers-color-scheme: light) { :root { filter: none; } }
@media (prefers-color-scheme: dark) { :root { filter: none; } }
</style></svg>